<?xml version="1.0" encoding="UTF-8"?>
<svg id="_レイヤー_2" data-name="レイヤー_2" xmlns="http://www.w3.org/2000/svg" viewBox="0 0 512 401.88">
  <g id="_x32_">
    <path d="M510.68,57.21c-2.31-11.63-7.46-22.26-14.66-31.05-1.52-1.92-3.1-3.63-4.82-5.35-12.76-12.82-30.66-20.81-50.21-20.81H71.02c-19.56,0-37.4,8-50.21,20.81-1.72,1.71-3.3,3.43-4.82,5.35-7.2,8.79-12.36,19.43-14.6,31.05-.92,4.49-1.39,9.12-1.39,13.81v259.83c0,9.97,2.11,19.55,5.88,28.2,3.5,8.26,8.65,15.73,14.93,22,1.59,1.59,3.17,3.04,4.89,4.49,12.29,10.17,28.15,16.32,45.32,16.32h369.96c17.18,0,33.11-6.14,45.32-16.38,1.72-1.39,3.3-2.84,4.89-4.43,6.27-6.27,11.42-13.74,14.99-22v-.06c3.77-8.65,5.81-18.17,5.81-28.14V71.02c0-4.69-.46-9.32-1.32-13.81ZM46.51,46.51c6.35-6.34,14.87-10.18,24.51-10.18h369.96c9.65,0,18.24,3.84,24.51,10.18,1.12,1.13,2.18,2.39,3.11,3.64l-193.91,169c-5.35,4.69-11.95,7-18.7,7s-13.28-2.32-18.7-7L43.47,50.07c.86-1.25,1.92-2.44,3.04-3.57ZM36.33,330.86V87.67l140.32,122.41-140.25,122.29c-.07-.46-.07-.99-.07-1.51ZM440.98,365.53H71.02c-6.28,0-12.16-1.65-17.17-4.55l147.98-128.96,13.82,12.02c11.56,10.05,26.03,15.13,40.36,15.13s28.87-5.09,40.43-15.13l13.81-12.02,147.92,128.96c-5.02,2.9-10.9,4.55-17.18,4.55ZM475.67,330.86c0,.53,0,1.05-.07,1.52l-140.25-122.21,140.32-122.42v243.12Z"/>
  </g>
</svg>